<svg viewBox="0 0 24 24" fill="none" xmlns="http://www.w3.org/2000/svg">
  <path d="M13.55 3.5H10.45L9.94 5.73C9.42 5.9 8.93 6.15 8.49 6.46L6.34 5.79L4.79 8.47L6.43 10.01C6.38 10.33 6.35 10.66 6.35 11C6.35 11.34 6.38 11.67 6.43 11.99L4.79 13.53L6.34 16.21L8.49 15.54C8.93 15.85 9.42 16.1 9.94 16.27L10.45 18.5H13.55L14.06 16.27C14.58 16.1 15.07 15.85 15.51 15.54L17.66 16.21L19.21 13.53L17.57 11.99C17.62 11.67 17.65 11.34 17.65 11C17.65 10.66 17.62 10.33 17.57 10.01L19.21 8.47L17.66 5.79L15.51 6.46C15.07 6.15 14.58 5.9 14.06 5.73L13.55 3.5Z" stroke="currentColor" stroke-width="1.8" stroke-linejoin="round"/>
  <circle cx="12" cy="11" r="2.65" stroke="currentColor" stroke-width="1.8"/>
</svg>
